<svg xmlns="http://www.w3.org/2000/svg" viewBox="0 0 512 512"><g data-name="Toy Robot"><path style="fill:#c9c9d3" d="M128 42.667h21.333v106.667H128zM341.333 42.667h21.333v106.667h-21.333z"/><path d="M341.333 128h21.334A21.333 21.333 0 0 1 384 149.333v21.334h-64v-21.334A21.333 21.333 0 0 1 341.333 128z" style="fill:#5b5c7a"/><path d="M128 128h21.333a21.333 21.333 0 0 1 21.334 21.333v21.334h-64v-21.334A21.333 21.333 0 0 1 128 128z" style="fill:#7b7c94"/><path d="M128 128a21.333 21.333 0 0 1 21.333 21.333v21.334h-42.666v-21.334A21.333 21.333 0 0 1 128 128z" style="fill:#8e8fa3"/><path d="M341.333 128a21.333 21.333 0 0 1 21.334 21.333v21.334H320v-21.334A21.333 21.333 0 0 1 341.333 128z" style="fill:#7b7c94"/><path d="M106.667 149.333h298.666a85.333 85.333 0 0 1 85.334 85.334v192A42.667 42.667 0 0 1 448 469.333H64a42.667 42.667 0 0 1-42.667-42.666v-192a85.333 85.333 0 0 1 85.334-85.334z" style="fill:#8e8fa3"/><path d="M448 469.333H341.333v-42.666H448v-192A42.716 42.716 0 0 0 405.333 192h-64v-42.667h64a85.424 85.424 0 0 1 85.334 85.334v192A42.716 42.716 0 0 1 448 469.333z" style="fill:#7b7c94"/><path d="M256 149.333H106.667a85.333 85.333 0 0 0-85.334 85.334v192A42.667 42.667 0 0 0 64 469.333h234.667a42.667 42.667 0 0 0 42.666-42.666v-192A85.333 85.333 0 0 0 256 149.333z" style="fill:#c9c9d3"/><path d="M298.667 469.333H256v-42.666h42.667v-192A42.716 42.716 0 0 0 256 192v-42.667a85.424 85.424 0 0 1 85.333 85.334v192a42.716 42.716 0 0 1-42.666 42.666z" style="fill:#a5a5b6"/><path d="M426.667 383.98a85.313 85.313 0 0 1-60.344-145.647l15.083 15.084a64.071 64.071 0 0 0 0 90.5c24.146 24.125 66.375 24.125 90.521 0L487.01 359a84.734 84.734 0 0 1-60.343 24.98z" style="fill:#7b7c94"/><circle cx="426.667" cy="298.667" r="64" style="fill:#c9c9d3"/><path d="M426.677 362.646h-.02a63.993 63.993 0 0 1-45.24-109.23l30.166 30.167a21.313 21.313 0 0 0 15.084 36.396h.01a21.11 21.11 0 0 0 15.063-6.229l30.187 30.167a63.532 63.532 0 0 1-45.25 18.729z" style="fill:#a5a5b6"/><ellipse cx="458.667" cy="288" rx="25.281" ry="37.529" transform="rotate(-45 458.667 288)" style="fill:#ebebee"/><path d="M106.677 362.646h-.01a63.532 63.532 0 0 1-45.25-18.73L76.5 328.834a42.388 42.388 0 0 0 30.167 12.48h.01a42.662 42.662 0 0 0 30.156-72.813l15.084-15.083a63.98 63.98 0 0 1-45.24 109.229z" style="fill:#a5a5b6"/><circle cx="106.667" cy="298.667" r="42.667" style="fill:#009fc2"/><path d="M46.323 359A85.332 85.332 0 0 1 167.01 238.333l-15.083 15.084c-24.146-24.125-66.375-24.125-90.52 0a64.071 64.071 0 0 0 0 90.5zM195.656 359a85.332 85.332 0 0 1 120.688-120.667l-15.084 15.084c-24.145-24.125-66.375-24.125-90.52 0a64.071 64.071 0 0 0 0 90.5z" style="fill:#dddde3"/><ellipse cx="85.333" cy="277.333" rx="26.979" ry="13.489" transform="rotate(-45 85.333 277.333)" style="fill:#7cd5e5"/><path d="M106.667 341.313a42.54 42.54 0 0 1-30.167-12.48l15.083-15.083a21.331 21.331 0 0 0 30.167-30.167l15.083-15.083a42.646 42.646 0 0 1-30.166 72.813z" style="fill:#0c87b6"/><path d="M256.01 362.646H256a63.532 63.532 0 0 1-45.25-18.73l15.083-15.083A42.388 42.388 0 0 0 256 341.313h.01a42.662 42.662 0 0 0 30.157-72.813l15.083-15.083a63.98 63.98 0 0 1-45.24 109.229z" style="fill:#a5a5b6"/><circle cx="256" cy="298.667" r="42.667" style="fill:#009fc2"/><path d="M256 341.313a42.54 42.54 0 0 1-30.167-12.48l15.084-15.083a21.331 21.331 0 0 0 30.166-30.167l15.084-15.083A42.646 42.646 0 0 1 256 341.313z" style="fill:#0c87b6"/><path style="fill:#4a4b6c" d="M384 192h64v21.333h-64z"/><path style="fill:#a5a5b6" d="M384 170.667h64V192h-64zM384 384h64v21.333h-64z"/><path style="fill:#4a4b6c" d="M384 405.333h64v21.333h-64z"/><path style="fill:#8e8fa3" d="M128 384h106.667v42.667H128z"/><path style="fill:#6b6c87" d="M128 384h42.667v42.667H128zM149.333 192h21.333v42.667h-21.333zM192 192h21.333v42.667H192z"/><path style="fill:#dddde3" d="M170.667 192H192v42.667h-21.333zM213.333 192h21.333v42.667h-21.333z"/><circle cx="138.667" cy="74.667" r="32" style="fill:#f9578f"/><path d="M128 96a31.626 31.626 0 0 0 1.495 9.172 31.627 31.627 0 0 0 9.172 1.495 32 32 0 0 0 32-32 31.627 31.627 0 0 0-1.495-9.172A31.626 31.626 0 0 0 160 64a32 32 0 0 0-32 32z" style="fill:#f73478"/><path style="fill:#f9c450" d="m245.333 111.083-42.666-42.666-16.917 16.916h-47.083V64h38.25l25.75-25.75 42.666 42.667L288 38.25 313.75 64h16.917v21.333h-25.75L288 68.417l-42.667 42.666z"/><circle cx="352" cy="74.667" r="32" style="fill:#f9578f"/><path d="M320 74.667a31.626 31.626 0 0 0 1.495 9.172 31.626 31.626 0 0 0 9.172 1.494 32 32 0 0 0 32-32 31.627 31.627 0 0 0-1.495-9.172A31.626 31.626 0 0 0 352 42.667a32 32 0 0 0-32 32z" style="fill:#fb91b5"/><ellipse cx="234.667" cy="277.333" rx="26.979" ry="13.489" transform="rotate(-45 234.667 277.333)" style="fill:#7cd5e5"/><path style="fill:#dddde3" d="M234.667 384H256v42.667h-21.333zM85.333 448a42.716 42.716 0 0 1-42.666-42.667v-32H64v32a21.354 21.354 0 0 0 21.333 21.334z"/></g></svg>